<svg id="Calque_1" data-name="Calque 1" xmlns="http://www.w3.org/2000/svg" viewBox="0 0 109.62 43.09">
    <defs>
        <style>.cls-1{fill:#1d1d1c;}</style>
    </defs>
    <path class="cls-1" d="M21.54,0A21.55,21.55,0,1,0,43.09,21.54,21.55,21.55,0,0,0,21.54,0ZM56,32.52a16.62,16.62,0,0,0,11.09,3.77A29.66,29.66,0,0,0,71,36a41.14,41.14,0,0,1,5.42-.53,3.44,3.44,0,0,1,1.79.5V28.58c-4.79,2.39-6.79,3-10.17,3q-4.55,0-6.76-2.43a9.44,9.44,0,0,1-2.19-6.37,10,10,0,0,1,2.79-7.21,9.21,9.21,0,0,1,6.72-2.33c3.52,0,6.34.91,8.28,2.75l2.42-6.73a3.46,3.46,0,0,1-1.19.25,12.48,12.48,0,0,1-1.34-.14,60.14,60.14,0,0,0-8.31-.85,19,19,0,0,0-11.27,3.28c-3.38,2.43-5.1,6.12-5.1,11,0,4.26,1.27,7.47,3.91,9.75Zm25.81,3.17h26.68c-.46-.28-.6-.49-.6-.88a3.42,3.42,0,0,1,.14-.91l1.55-5.07a9.11,9.11,0,0,1-3.55,1.65,33.08,33.08,0,0,1-6.62.71H93l14.51-20.67a3.4,3.4,0,0,1,1.44-1.41H83.74a.92.92,0,0,1,.46.74,2.25,2.25,0,0,1-.21.81l-1.9,5.67c2.08-1.94,4.4-2.78,7.82-2.78H98L83.25,34.46c-.67.95-.74,1-1.4,1.23Zm-73-15.15L8.2,12.88H32.77l.51,6.36-2.2,2.19,2.58,2.5L34,28.67l-4.67,4.65H23.42l-.48-6h2.61l.28,3.49h2.51l3-3.14-.21-2.6-3.63-3.62,3.08-3.21-.22-2.81H10.94l.21,2.6H14.6l.21,2.53Zm16.61,5.13H16.93L16.31,18h2.54l.41,5.13H22.6L22.19,18H24.8l.62,7.66Zm13.21-4.13a16.92,16.92,0,0,1-1.3,6.54l.81.34a18,18,0,0,1-9.72,9.72l-.34-.8a17.22,17.22,0,0,1-13.08,0l-.33.8a18.06,18.06,0,0,1-9.73-9.72l.81-.34A17.22,17.22,0,0,1,5.75,15l-.81-.33a18.11,18.11,0,0,1,9.73-9.73l.33.81a17.1,17.1,0,0,1,13.08,0l.34-.81a18.06,18.06,0,0,1,9.72,9.73l-.81.33A17,17,0,0,1,38.63,21.54Z" />
</svg>