<svg xmlns="http://www.w3.org/2000/svg" viewBox="0 0 197.83 69.88" xmlns:v="https://vecta.io/nano">
    <path d="M36.12 10.22c.51 2.06-1.91 4.42-5.39 5.27s-6.73-.13-7.22-2.19 1.92-4.41 5.4-5.3 6.71.17 7.21 2.22zM17.35 59.75H10s11.63-7.34 12.46-12.46c1.37-8.41-12.6-7.67-12.77-17.11-.21-9.26 10.67-13.43 12.08-13.58a40.79 40.79 0 0 1 4.4-.19L49.71 16l-3.09 5-15.86.09c-.67 0-7.26 1-8.93 7.17-.21.77-1.41 5.35 5.59 8.43s13.18 7.12 7.35 14.19c0 0-1.59 2.25-6.76 5.17l-6.43 3.7h-2.5s7.67-4.7 9.68-9.37c.41-1 3.34-6.43-3.84-11.85 0 0 7.65 8.16 1 14.1s-8.57 7.12-8.57 7.12z" fill="#1d1d1c" />
    <path d="M48.54 15.1h2.08z" />
    <g fill="#1d1d1c">
        <path d="M48.68 13.63a2.1 2.1 0 0 0-.2 1.56h2.17a4.17 4.17 0 0 1 4.42-.09h2.35v-.91h7.14V13H64l-.36-.81-.34 1H49.9a2.22 2.22 0 0 0-1.22.44zM55.76 17c0 1.07-1.26 1.94-2.82 1.94s-2.82-.87-2.82-1.94 1.26-1.94 2.82-1.94 2.82.88 2.82 1.94zm-2.23 2.55a3.64 3.64 0 0 1-4.41-.69l-1.61 2.61-15.51.12v.25L48.41 23l.92-1.79s3.5-.18 4.33-1.39zm-4.29 8.16l-5.9 28.77-5.87-.06 5.86-28.71zm15.18 0c3.76 0 6.58 1.23 8.46 3.2s2.8 4.73 2.77 8.3a24.15 24.15 0 0 1-1 6.95 15.86 15.86 0 0 1-3 5.55 13.33 13.33 0 0 1-4.86 3.65 16.06 16.06 0 0 1-6.76 1.26l-11.14-.1 5.86-28.81zm-4.07 23.6a8.73 8.73 0 0 0 4-.85 8.64 8.64 0 0 0 2.94-2.39 11 11 0 0 0 1.82-3.53 14.61 14.61 0 0 0 .66-4.3 11.41 11.41 0 0 0-.3-2.84 5.92 5.92 0 0 0-1-2.2 4.79 4.79 0 0 0-1.81-1.45 6.43 6.43 0 0 0-2.66-.52h-4.42l-3.76 18.03zm35.36-23.6l4.19 28.77h-5.83l-.8-6.31-10-.09-3.4 6.22H73.7l16-28.54zm-2.92 17.73l-1.21-11.32h-.07l-5.86 11.26zm63.37 18.12a1.06 1.06 0 0 0-.55.15 1.12 1.12 0 0 0-.4.41 1.14 1.14 0 0 0 0 1.13 1.1 1.1 0 0 0 .41.42 1.08 1.08 0 0 0 1.1 0 1 1 0 0 0 .4-.4 1.1 1.1 0 0 0 .14-.57 1.11 1.11 0 0 0-.31-.81 1.06 1.06 0 0 0-.79-.33zm4.84.11a1.12 1.12 0 0 0-.47-.11 1 1 0 0 0-.7.26 1.14 1.14 0 0 0-.29.47h2a1 1 0 0 0-.54-.62zm2.86 1.03a1.2 1.2 0 0 0 .14.57 1 1 0 0 0 .4.4 1.08 1.08 0 0 0 1.1 0 1.1 1.1 0 0 0 .41-.42 1.14 1.14 0 0 0 0-1.13 1.12 1.12 0 0 0-.4-.41 1.06 1.06 0 0 0-.55-.15 1 1 0 0 0-.78.33 1.08 1.08 0 0 0-.32.81zm17.42-3.6h1.29v6.55h-.65v-5.91h-1z" />
        <path d="M182.66 67.74h-.83v-5.91h-1.1l.5-.82h1.43zm-.65-.18h.47v-6.37h-1.14l-.29.46h1zm4.39.25l-.54-.34 1.78-2.69a2.11 2.11 0 0 1-.67.12 1.8 1.8 0 0 1-1.33-.56 2.09 2.09 0 0 1-.28-2.41 1.88 1.88 0 0 1 .75-.73 2.06 2.06 0 0 1 1-.27 2.08 2.08 0 0 1 1 .26 2 2 0 0 1 .72.74 2.08 2.08 0 0 1 .26 1 2.35 2.35 0 0 1-.16.84 5 5 0 0 1-.58 1.07zm.72-3.48a1.31 1.31 0 0 0 1-.41 1.38 1.38 0 1 0-2 0 1.34 1.34 0 0 0 1 .41z" />
        <path d="M186.43 67.94l-.69-.45 1.69-2.56a1.94 1.94 0 0 1-.43.07 1.85 1.85 0 0 1-1.39-.59A2 2 0 0 1 185 63a2.15 2.15 0 0 1 .27-1.07 2 2 0 0 1 .78-.75 2.19 2.19 0 0 1 1.08-.29 2 2 0 0 1 1.05.28 1.94 1.94 0 0 1 .76.77 2.13 2.13 0 0 1 .27 1 2.4 2.4 0 0 1-.17.88 5.45 5.45 0 0 1-.59 1.08zm-.44-.5l.39.25 1.93-2.89a5.23 5.23 0 0 0 .58-1 2.45 2.45 0 0 0 .15-.81 2 2 0 0 0-.25-1 1.86 1.86 0 0 0-.69-.7 2 2 0 0 0-1.95 0 1.81 1.81 0 0 0-.71.69 1.91 1.91 0 0 0-.25 1 1.8 1.8 0 0 0 .52 1.32 1.66 1.66 0 0 0 1.26.54 2.21 2.21 0 0 0 .64-.11l.24-.08zm1.13-3a1.47 1.47 0 0 1 0-2.94 1.47 1.47 0 1 1 0 2.94zm0-2.76a1.23 1.23 0 0 0-.9.38 1.28 1.28 0 0 0 0 1.82A1.294 1.294 0 1 0 188 62a1.26 1.26 0 0 0-.89-.34zm6.09 2.37a2.45 2.45 0 0 1 .95.76 1.67 1.67 0 0 1 .29 1 2 2 0 0 1-.49 1.34 2.18 2.18 0 0 1-1.74.7 2.07 2.07 0 0 1-1.64-.62 2 2 0 0 1-.57-1.37 1.69 1.69 0 0 1 .3-1 2.38 2.38 0 0 1 1-.79 1.83 1.83 0 0 1-.72-.61 1.47 1.47 0 0 1-.24-.8 1.54 1.54 0 0 1 .25-.83 1.76 1.76 0 0 1 .71-.64 2.06 2.06 0 0 1 1-.24 1.94 1.94 0 0 1 .95.24 1.82 1.82 0 0 1 .68.64 1.65 1.65 0 0 1 .25.85 1.34 1.34 0 0 1-.24.79 1.91 1.91 0 0 1-.74.58zm-.94.33a1.59 1.59 0 0 0-1.14.44 1.42 1.42 0 0 0-.46 1 1.31 1.31 0 0 0 .75 1.18 1.73 1.73 0 0 0 .81.17 1.54 1.54 0 0 0 1.14-.42 1.35 1.35 0 0 0 .42-1 1.3 1.3 0 0 0-.45-1 1.5 1.5 0 0 0-1.07-.37zm0-2.81a1.25 1.25 0 0 0-.89.32 1 1 0 0 0 .03 1.55 1.28 1.28 0 0 0 .89.35 1.21 1.21 0 0 0 .61-.16 1.15 1.15 0 0 0 .46-.44 1.16 1.16 0 0 0 .16-.56 1.07 1.07 0 0 0-.32-.73 1.27 1.27 0 0 0-.98-.33z" />
        <path d="M192.22 67.9a2.19 2.19 0 0 1-1.71-.65 2.09 2.09 0 0 1-.59-1.43 1.84 1.84 0 0 1 .31-1 2.51 2.51 0 0 1 .87-.74 1.87 1.87 0 0 1-.61-.57 1.5 1.5 0 0 1-.25-.84 1.62 1.62 0 0 1 .27-.88 1.79 1.79 0 0 1 .74-.67 2.19 2.19 0 0 1 2 0 1.93 1.93 0 0 1 .72.67 1.76 1.76 0 0 1 .26.9 1.51 1.51 0 0 1-.25.84 2 2 0 0 1-.59.55 2.43 2.43 0 0 1 .84.71 1.74 1.74 0 0 1 .3 1 2.05 2.05 0 0 1-.52 1.39 2.24 2.24 0 0 1-1.79.72zm.05-6.88a2 2 0 0 0-.94.23 1.69 1.69 0 0 0-.67.6 1.51 1.51 0 0 0-.24.79 1.34 1.34 0 0 0 .22.75 1.67 1.67 0 0 0 .69.58l.16.09-.16.07a2.54 2.54 0 0 0-1 .76 1.67 1.67 0 0 0-.28.93 1.89 1.89 0 0 0 .54 1.31 2.05 2.05 0 0 0 1.58.59 2.09 2.09 0 0 0 1.67-.67 2 2 0 0 0 .47-1.28 1.57 1.57 0 0 0-.27-.91 2.37 2.37 0 0 0-.92-.73l-.15-.07.15-.08a1.94 1.94 0 0 0 .67-.58 1.32 1.32 0 0 0 .22-.74 1.47 1.47 0 0 0-.24-.8 1.6 1.6 0 0 0-.65-.61 1.85 1.85 0 0 0-.85-.25zm0 6.26a1.9 1.9 0 0 1-.85-.18 1.38 1.38 0 0 1-.59-.53 1.35 1.35 0 0 1-.21-.73 1.47 1.47 0 0 1 .49-1.08 1.72 1.72 0 0 1 2.34 0 1.42 1.42 0 0 1 0 2.09 1.62 1.62 0 0 1-1.22.43zm0-2.81a1.49 1.49 0 0 0-1.08.42 1.27 1.27 0 0 0-.43 1 1.14 1.14 0 0 0 .19.64 1.2 1.2 0 0 0 .51.46 1.71 1.71 0 0 0 .77.16 1.45 1.45 0 0 0 1.07-.39 1.26 1.26 0 0 0 .4-.93 1.23 1.23 0 0 0-.42-.91 1.45 1.45 0 0 0-1.01-.45zm0-.59a1.39 1.39 0 0 1-1-.38 1.14 1.14 0 0 1-.4-.85 1.07 1.07 0 0 1 .38-.83 1.35 1.35 0 0 1 .95-.34 1.33 1.33 0 0 1 1 .36 1.14 1.14 0 0 1 .35.79 1.16 1.16 0 0 1-.18.61 1.21 1.21 0 0 1-.48.47 1.41 1.41 0 0 1-.63.17zm0-2.22a1.22 1.22 0 0 0-.83.29.9.9 0 0 0-.32.7 1 1 0 0 0 .35.72 1.18 1.18 0 0 0 .83.33 1.16 1.16 0 0 0 .57-.15 1.08 1.08 0 0 0 .42-.4 1 1 0 0 0 .15-.52.92.92 0 0 0-.3-.66 1.13 1.13 0 0 0-.91-.31zm4.18-.56h1.29v6.55h-.65v-5.91h-1z" />
        <path d="M197.83 67.74H197v-5.91h-1.1l.5-.82h1.43zm-.65-.18h.47v-6.37h-1.15l-.28.46h1zM185.33 34c2.67-14.9-5-26.88-17.41-26.88h-1.16L168.24 0h-1.5l-1.52 7.35c-11.5 1.56-22.58 12.86-25.8 26.68H136l.47-6.59h-6.64l-9.17 15.83v.07l-2.48-15.9h-6.51l-10.5 29.33H108l5.41-16.55h.46l2.66 16.41h2.66l9.63-16.5.27.09-1.37 16.41h6.69l1.47-20.78h3.22c-2.1 11.61 2.06 21.43 9.9 25.21H8.7L0 67.49h152.83l-.5 2.39h1.5l.5-2.39h21.58l4-6.43h-15.27C174 57.28 182.25 47.45 185 35.85h3.31l.37-1.82zM164.85 9.18l-1.57 7.6c-7.55.9-14.88 8.22-17.1 17.25h-5.26c3.01-12.82 13.26-23.3 23.93-24.85zm-12.32 26.67c-.55 4.36 1.6 7.84 5.11 8.28l-1.47 7.15c-6.35-.89-10.16-7.4-8.87-15.43zM147.68 34c2-8 8.51-14.53 15.22-15.42l-1.47 7.14c-3.69.44-7.28 3.93-8.53 8.28zm6.32 1.85a7.44 7.44 0 0 1 .14-.91 9.32 9.32 0 0 1 .23-.91c1-3.35 3.78-6 6.64-6.45a7 7 0 0 1 .79-.06 5.39 5.39 0 0 1 .71.05c2.72.4 4.39 3.09 4 6.46 0 .3-.08.6-.14.91a9.36 9.36 0 0 1-.24.91c-1 3.38-3.81 6.06-6.69 6.46a6.15 6.15 0 0 1-.74.06 4.77 4.77 0 0 1-.76-.07c-2.6-.43-4.25-3.09-3.94-6.45zm5.1 8.29c3.71-.42 7.33-3.91 8.59-8.29h6.72c-2.18 8.65-9.53 15.54-16.78 15.54h0zm9-10.11c.55-4.38-1.63-7.87-5.17-8.28l1.49-7.25h0c7.25 0 11.76 6.89 10.37 15.53zm-13.88 26.68c-10-1.55-15.95-12-13.67-24.86h5.25c-1.49 9 2.81 16.36 10 17.26zm3.58 5.57h-.56v-.38a2 2 0 0 1-.42.3 1.63 1.63 0 0 1-.7.16 1.6 1.6 0 0 1-1.16-.49 1.69 1.69 0 0 1-.47-1.2 1.61 1.61 0 0 1 .51-1.17 1.56 1.56 0 0 1 1.16-.49 1.52 1.52 0 0 1 .71.17 1.45 1.45 0 0 1 .4.3v-1.55h.56zm2-.77a1 1 0 0 0 .73.31 1.25 1.25 0 0 0 .42-.08.94.94 0 0 0 .34-.19 1.72 1.72 0 0 0 .31-.41v-.07l.48.25v.08a2.35 2.35 0 0 1-.39.54 1.66 1.66 0 0 1-.51.31 1.71 1.71 0 0 1-.62.11 1.56 1.56 0 0 1-1.23-.52 1.77 1.77 0 0 1-.43-1.15 1.66 1.66 0 0 1 .37-1.07 1.5 1.5 0 0 1 1.26-.61 1.57 1.57 0 0 1 1.3.62 1.75 1.75 0 0 1 .36 1.08v.09h-2.69a1.06 1.06 0 0 0 .31.71zm12.46.77h-.57v-3.19h.57zm2.25-1.12a1.5 1.5 0 0 0-.46-.3 1.66 1.66 0 0 1-.59-.44.92.92 0 0 1 .1-1.16.92.92 0 0 1 .65-.25 1.33 1.33 0 0 1 .9.43l.07.07-.38.38-.06-.06c-.3-.29-.61-.36-.81-.18a.3.3 0 0 0-.1.23.35.35 0 0 0 .09.22 1.41 1.41 0 0 0 .43.3 1.65 1.65 0 0 1 .62.45.86.86 0 0 1 .17.53.94.94 0 0 1-.28.69 1 1 0 0 1-.72.29 1.25 1.25 0 0 1-.53-.13 1.1 1.1 0 0 1-.43-.34h0l.36-.41.06.07a.75.75 0 0 0 .57.31.44.44 0 0 0 .33-.13.37.37 0 0 0 .14-.28.36.36 0 0 0-.12-.29zM171.69 62a.41.41 0 0 1 .58 0 .41.41 0 1 1-.58 0zm-4 1.12h.56v1.49a2.58 2.58 0 0 0 .06.69.63.63 0 0 0 .28.38.84.84 0 0 0 .5.15.87.87 0 0 0 .5-.14.65.65 0 0 0 .28-.37 2.47 2.47 0 0 0 .05-.71v-1.52h.58v1.57a2.43 2.43 0 0 1-.15 1 1.22 1.22 0 0 1-.47.53 1.64 1.64 0 0 1-1.57 0 1.11 1.11 0 0 1-.47-.53 2.59 2.59 0 0 1-.15-1zM165 63a1.56 1.56 0 0 1 1.16.49 1.61 1.61 0 0 1 .48 1.17 1.69 1.69 0 0 1-.47 1.2 1.6 1.6 0 0 1-1.16.49 1.63 1.63 0 0 1-.7-.16 1.73 1.73 0 0 1-.41-.3v1.48h-.57v-4.28h.57v.39a1.57 1.57 0 0 1 .39-.3A1.52 1.52 0 0 1 165 63zm-8.15-2.1h-1.15l1.58-7.68h0c8.07 0 16.27-7.7 18.65-17.35h7.5c-3.24 13.88-15.01 25.04-26.59 25.04zm27-26.88h-7.5c1.59-9.64-3.43-17.35-11.5-17.35h0L166.38 9h1.16c11.59 0 18.76 11.13 16.29 25z" />
    </g>
</svg>