<svg id="Calque_1" data-name="Calque 1" xmlns="http://www.w3.org/2000/svg" viewBox="0 0 159.98 42.29"><defs><style>.cls-1,.cls-2{fill:#1d1d1c;}.cls-1{fill-rule:evenodd;}</style></defs><path class="cls-1" d="M135.87,21.47c.08-.39-.52-.72-.91-.72H131.9c.17.18,1.52.09,1.55.31s-.79.18-.79.32,1.12.22,1.07.36-2.64.21-2.91.45h3.84a1.25,1.25,0,0,0,1.21-.72Z"/><path class="cls-1" d="M133.61,39.35,133,42.29h.76l.57-2.69c4.38,1,8.77-.3,13-4.18A26.34,26.34,0,0,0,155,22.12h4.67l.36-1.41H155.3c.71-4.31.53-8.38-1.37-12.09-2.45-4.8-6.79-6.46-11.88-5.3L142.76,0H142l-.75,3.58a19.35,19.35,0,0,0-9.15,6.75,26.5,26.5,0,0,0-5,10.25h.54a25,25,0,0,1,4.83-9.74A17.84,17.84,0,0,1,141,4.63L139.83,10a11.15,11.15,0,0,0-5.69,3.73,16.66,16.66,0,0,0-3.57,6.77h.61c1.28-4.47,4.61-8.57,8.47-9.44l-1.19,5.39a6,6,0,0,0-3.91,4h.75c.63-1.55,1.87-3,3.49-3,2.18,0,2.41,2.55,2.07,4-.4,1.8-2,4.12-3.88,3.94-1.56-.14-2.1-1.59-2.12-2.9h-.72c-.07,1.7.53,3.32,2.2,3.92l-1.13,5.35a5.76,5.76,0,0,1-4.06-4.14,11.08,11.08,0,0,1-.39-5.18h-.61c-.68,4.27.49,9,4.82,10.43l-1.14,5.4c-3-1.14-5.08-3.44-6.19-7.16a19.54,19.54,0,0,1-.4-8.71h-.52c-1.2,6.52.29,14.24,6.89,16.93ZM138,20.94c.65,0,.48,1.14-.18,1.14s-.48-1.14.18-1.14Zm2.48-10-1.17,5.5c1.78.12,2.9,1.87,2.59,4.43h5a10.88,10.88,0,0,0-.76-6.65,5.41,5.41,0,0,0-5.65-3.28ZM141.61,22h5a14.94,14.94,0,0,1-4,7.15c-2.19,2.14-4.44,3-6.58,2.78l1.15-5.45c2.15-.36,3.7-2.1,4.48-4.48Zm.21-17.63-1.16,5.49A5.85,5.85,0,0,1,147,13.17a11.52,11.52,0,0,1,.92,7.64l6,0c.8-4.64.31-8.49-1.43-11.59C150,4.76,146.35,3.5,141.82,4.39Zm11.82,17.73-6-.05a17,17,0,0,1-4.51,8c-2.43,2.31-4.93,3.25-7.4,3l-1.2,5.45c4.25.94,8.56-.49,12.75-4.74a24.61,24.61,0,0,0,6.35-11.64Z"/><path class="cls-2" d="M116.53,26.42h-4.31l-1,4.9.54,1.48h-6.51l2.25-10.66,5.64.08L112.73,24H117l.36-1.67,5.64.08-1.89,9,.55,1.48h-7.38l1.17-1.48,1-4.9Zm-8.81-5.55.63-2.95h6.52l-1.18,1.49-.29,1.38-5.68.08Zm10-.15.27-1.31-.54-1.49h7.38l-1.17,1.49-.26,1.23-5.68.08Zm-57.91-.35ZM49.76,28.59l1.37-6.48c.26-1.26.51-1.75,1.82-1.74h6.87l1.3.86.7-3.31H50.31c-2.13,0-4,.42-4.6,3.08l-1.84,8.7c-.27,1.47.11,2.41,1.15,2.83s5.17.27,6.47.25c1.54,0,2.6-.11,3-1.61a12,12,0,0,0-.06,1.61h5.14L59,31.29l1.55-7.37H51.79l-.5,2.36h3.17l-.54,2.57c-.22,1-.42,1.48-1.47,1.48-2.54,0-3.11.23-2.69-1.74ZM14.64,26.42l4.71-8.5h7.87l-1.17,1.49L23.53,31.32l.55,1.48H16.7l1.17-1.48L20,21.48,13.7,32.8h-4L8.28,21.48,6.21,31.32l.54,1.48H2.58l1.18-1.48L6.27,19.41l-.55-1.49h7.87l1.05,8.5Zm20.91-.05-.94-4.61-3.05,4.61Zm1.38,6.43h-1.5l1.17-1.48-.55-2.55H29.93l-1.7,2.55.54,1.48H24.46l9.12-13.4L33,17.92h7.09L42.91,32.8ZM67.15,20.38H64l-1.67.86.7-3.32H77.94l-.7,3.32-1.31-.86H72.81l-.22,1-5.67.09.23-1.11Zm5.4,1.25-2,9.69.55,1.48H63.67l1.17-1.48,2.07-9.78,5.64.09Zm11.77-1.25-.18.85-5.68.09.72-3.4H92.47l-.68,3.19h-.2l-1.13-.74ZM84,21.8,83.56,24h4.9l1.67-.86-.88,4.17-1.31-.86H83l-.82,3.91h6.14L90,29.49l-.7,3.31H75.18l1.17-1.48,2-9.61L84,21.8Zm23.09-3.88-.63,3h-.58l-.8-.52s-5.13-.06-5.59.08a1.18,1.18,0,0,0-.68.55l-5.73.08a4.41,4.41,0,0,1,2.34-2.7,4.64,4.64,0,0,1,2.08-.47ZM98.51,22l-.06.25-1.33,6.31c-.36,1.71.41,1.78,1.57,1.78H103l1.67-.86L104,32.8h-9.6c-2,0-3.25-1.21-3.07-3.11.1-1.2,1.2-6,1.51-7.5l.06-.26,5.64.08Z"/><path class="cls-1" d="M132,40.13a10.5,10.5,0,0,1-5.67-5.43H2.12L0,42.19H131.51l.58-2ZM53.53,41a.75.75,0,0,0,.12-.38,2.34,2.34,0,0,0-.06-.44l-.1-.5h-2.3l-.55.81a.72.72,0,0,0-.16.38.66.66,0,0,0,0,.13H49.18a3.38,3.38,0,0,0,.62-.69l2.64-3.93a.73.73,0,0,0-.4-.28h2.6l.85,4.1a1.42,1.42,0,0,0,.35.8Zm11.54-4.42-.83,3.93.18.49H62l.39-.49.68-3.24L61,41H59.68l-.46-3.73-.68,3.24.18.49H57.34l.39-.49.83-3.93-.18-.48H61l.35,2.79,1.55-2.79h2.59Zm9.42,0-.82,3.93.18.49H71.41l.39-.49.69-3.24L70.43,41H69.11l-.47-3.73L68,40.47l.18.49H66.77l.38-.49L68,36.54l-.18-.48h2.59l.35,2.79,1.55-2.79h2.59Zm7.77.36-.78,3c-.13.54-.18.66-.37.85a.93.93,0,0,1-.52.23l-.27,0H77.47l-.46,0a.78.78,0,0,1-.71-.82,1.85,1.85,0,0,1,.08-.49l.75-2.91a1.81,1.81,0,0,0,.05-.39.91.91,0,0,0-.05-.26h2.19a2.28,2.28,0,0,0-.36.84l-.71,2.76a.73.73,0,0,0,0,.22c0,.21.11.27.47.27h1.5a.54.54,0,0,0,.38-.1c.09-.08.09-.09.17-.41l.76-2.93a1.74,1.74,0,0,0,.05-.39.66.66,0,0,0-.05-.26h1.12A1.93,1.93,0,0,0,82.26,36.9Zm7.49,0L88.7,41H86.62l-1.27-3.71-.79,3.06a2.3,2.3,0,0,0,0,.39.69.69,0,0,0,0,.26H83.44a2.28,2.28,0,0,0,.36-.84l.88-3.42a1.54,1.54,0,0,0,0-.39.62.62,0,0,0,0-.25h2.19l1.31,3.77L89,36.7a2.34,2.34,0,0,0,0-.39.59.59,0,0,0,0-.25h1.12A2.14,2.14,0,0,0,89.75,36.89Zm4.64,0-.87,3.42a1.67,1.67,0,0,0,0,.39.69.69,0,0,0,0,.26H91.36a2.28,2.28,0,0,0,.36-.84l.86-3.42a2.18,2.18,0,0,0,0-.39.62.62,0,0,0,0-.25h2.17A2.3,2.3,0,0,0,94.39,36.89Zm6.63.27-.42-.29h-1l-.08.35-.66,3.24L99,41H96.64l.38-.5.67-3.27h0l.06-.32h-1l-.54.29.22-1.1h4.82Zm4-.27-.88,3.42a1.67,1.67,0,0,0-.05.39.52.52,0,0,0,.05.26H102a2.28,2.28,0,0,0,.36-.84l.88-3.42a2.18,2.18,0,0,0,0-.39.62.62,0,0,0,0-.25h2.2A2.14,2.14,0,0,0,105,36.89Zm7.39.58-.62,2.42c-.21.8-.59,1.07-1.53,1.07h-2.51c-.58,0-.75,0-1-.23a.94.94,0,0,1-.31-.72,1.2,1.2,0,0,1,.09-.47l.62-2.41c.21-.8.62-1.07,1.6-1.07h2.38c.52,0,.75,0,1,.24a1,1,0,0,1,.34.75A1.52,1.52,0,0,1,112.42,37.47Zm7.77-.58L119.13,41h-2.07l-1.27-3.71L115,40.31a2.3,2.3,0,0,0,0,.39.69.69,0,0,0,0,.26h-1.12a2.28,2.28,0,0,0,.36-.84l.88-3.42a2.23,2.23,0,0,0,0-.39.57.57,0,0,0,0-.25h2.19l1.3,3.77.81-3.13a1.6,1.6,0,0,0,0-.39.59.59,0,0,0,0-.25h1.13A2,2,0,0,0,120.19,36.89Z"/><polygon class="cls-1" points="51.7 38.84 53.34 38.84 52.96 36.96 51.7 38.84"/><path class="cls-1" d="M110.27,36.83h-.69c-.35,0-.43.07-.54.47l-.61,2.36a1,1,0,0,0-.05.25.22.22,0,0,0,.13.17.89.89,0,0,0,.29,0h.71c.33,0,.34,0,.44-.42l.62-2.38,0-.13a1,1,0,0,0,0-.15C110.63,36.89,110.51,36.83,110.27,36.83Z"/></svg>