<svg xmlns="http://www.w3.org/2000/svg" viewBox="0 0 194.32 22.39"  fill="#1d1d1c" xmlns:v="https://vecta.io/nano"><path d="M85.37 11.44c-.5-1.49 2.17-4.06 3.4-3.18 1 .75-2.17 2.77-3.4 3.18m-2.15 6.38c-.79-.61-.79-1.77.27-2.64a10.8 10.8 0 0 0 2.25 2.58 2.38 2.38 0 0 1-2.52.06m1.6-10.31A6.23 6.23 0 0 0 82.37 13c-1.18.83-3.36 2.77-2.53 5.19.46 1.43 2.07 1.81 3.72 1.81a8.72 8.72 0 0 0 3.44-.64c.62.54.71 2.1.58 3a.25.25 0 0 0 .12 0c.87-.71 1.55-1.86 1-4.11.84-.77 2.22-2.67 1.92-3s-.65 0-.84.18a8.29 8.29 0 0 1-1.81 1.32 33.24 33.24 0 0 0-2-2.95c3.15-1.71 4.22-3.06 5-4.44 1.78-3.79-3.45-4-6.18-1.89m61.39 10.24c-1.61-2.06 2.15-5.13 4-5.52a5 5 0 0 0 .86 1.67c-.38 1-3.31 5.92-4.91 3.85m-27.71-6.88c1.64-1 2.06.08 1 1.25a12 12 0 0 1-3.69 3s.74-3.08 2.69-4.23m12.69-4.72c2.41-2.16 4.54-1.56 2.92.38a40.74 40.74 0 0 1-7.8 7.06c.47-2.33 3.76-6.43 4.88-7.44m10.45 0c2.4-2.16 4.53-1.56 2.91.38a40.53 40.53 0 0 1-7.79 7.06c.46-2.33 3.75-6.43 4.88-7.44m20.87-3.39a23.26 23.26 0 0 1-2.21 3.91 15.37 15.37 0 0 1-3.14-1.36c-1 .2-.86 3-.86 3a21.84 21.84 0 0 0 2.66.77 8.42 8.42 0 0 1-2.66 2.43c-.62.3-1.49.73-2.14.44-.45-.56-.6-1.21-1.31-1.44-.47-.19-1 .09-1.36-.23-.28-.62-.46-1.42-1.35-1.62-1.61-.29-2.7.78-3.8 1.79a14.15 14.15 0 0 0-2.12 3 6.41 6.41 0 0 0-.87 2.54c-2.73 1.9-6.74 3.78-6.83 0a2.91 2.91 0 0 1 0-.4S145 10 147.33 5.59c1.57-2.93-.73-4.2-4.09-2.73-2.67 1.17-6 4.45-7.91 7.39a9.65 9.65 0 0 0-1.5 4.95c-2.63 2-7.68 5-7.79.72v-.4c0-.14 8.44-5.51 10.8-9.93 1.57-2.93-.73-4.2-4.09-2.73-2.67 1.17-6 4.45-7.92 7.39a9.57 9.57 0 0 0-1.49 5c-2.44 1.87-6.84 4.41-7.61 1.53a29.05 29.05 0 0 0 4.34-3.44c3.16-3 1.52-4.95-.91-4.47a6.55 6.55 0 0 0-3.69 2 8.26 8.26 0 0 0-2.47 5.39s-1.15.49-2.36.88a5 5 0 0 0-1.61-5.6h0c-.11-.08-.22-.17-.35-.25s4.15-1.23 4.79-3.79a4.6 4.6 0 0 0-.62-4.16 6.82 6.82 0 0 0-2.54-2.16 9.88 9.88 0 0 0-4.06-1H106c-2.72 0-5.34 1.06-6.5 3.21A5.52 5.52 0 0 0 99.1 7a2.33 2.33 0 0 0 1.05 1.62.28.28 0 0 0 .3-.16 9.84 9.84 0 0 0 .37-2.46 3.18 3.18 0 0 1 .52-1.58 4.79 4.79 0 0 1 4.42-1.84c-1.12 3.24-3.32 6.41-4.9 9.46-1.38 2.18-3.83 7-5.38 5.27a.67.67 0 0 1-.2-.65c.16-.73 1.31-1.53 1.47-2.09a.31.31 0 0 0 0-.28c-.42-.69-3.34 1-3.25 3.41h0c.1 2.41 2.86 2.47 3.79 2.14a15.25 15.25 0 0 0 4.86-4.54 62.52 62.52 0 0 0 5.69-9.93l.88-1.83A2.61 2.61 0 0 1 110 5.11a2.68 2.68 0 0 1 .07.27c.89 3.38-3.89 4.33-4.45 5a1.56 1.56 0 0 0 .07 1.2h0l.08.17h0a1.09 1.09 0 0 0 .08.15h0a1.1 1.1 0 0 0 .09.14v.06l.09.14v.06l.09.13v.08a1.47 1.47 0 0 1 .1.13v.07l.15.2v.06l.11.15v.07a1.71 1.71 0 0 0 .11.14.25.25 0 0 0 0 .07c.81 1.18 1.34 2.5-.54 4.2-2.08 1.21-2.83-1.67-3.79-1.56-.44.37-.17 3.48 2.09 3.86a3.67 3.67 0 0 0 .51 0h.31a13.28 13.28 0 0 0 3.48-.46 20.86 20.86 0 0 0 4.42-1.54c.64 1.29 2.08 2.62 5.35 1.49a14.38 14.38 0 0 0 5.02-2.39c.31 1.36 1.46 4.09 5.74 2.61a14.68 14.68 0 0 0 4.7-2.66c.28 1.34 1.41 4.16 5.75 2.66a14.78 14.78 0 0 0 3.67-1.87A2.76 2.76 0 0 0 146 20c4.06 0 5.51-3.68 6.52-5.47a16.24 16.24 0 0 0 2.55-1c.74-.38 1.24-.59 2-1a24.65 24.65 0 0 0-1.4 3.08c-.35 1-.5 2.77 0 3.46a2.38 2.38 0 0 0 2.06.95c2.19.14 5.88-4 5-4.7-.49-.44-2.54 2.12-3.89 1.83-.71-.37 2.1-5.35 3.43-7.72 0 0 4.61-.22 5.05-1.61l-4.1-.34c.44-1.26 2.15-3.75-.73-4.73m16.17 8.47l-1.16 1.23-1.85-1.76 1.16-1.25zm2.13 2.17l-1.13 1.15-1.85-1.72 1.13-1.22zm.12-4.61l-1.81-1.72c2.13-2.73 4.45-.5 1.81 1.72m2.17 2.07l-1.82-1.69c2.1-2.76 4.38-.54 1.82 1.69m-5.58-8.12c-2.66 1-2.94 4.3-1.25 6.24L173 12.41l.88.32 4 3.63c0 .22.25.63.29.85l3.22-3.32c2 1.78.13 3.88-1.72 3.85a7.41 7.41 0 0 1-6.61-10.84c.21-.47 0-.94-.19-.56-4.07 7.2 3.35 14 9.33 11.8 2.13-.75 3.82-4.51 1.44-6.7l1.78-2c1.6-1.6.35-3.54-1.56-3.48.38-1.5-2.35-2.72-3.29-1.72l-2.1 2.19c-.87-1.09-1.16-3.16 1.95-3.41 2.69-.25 9.42 3.85 6.23 11.27-.22.44.15.75.28.54 3.85-7.3-3-14.29-9.43-12.13m10.9 9.84A8.79 8.79 0 1 1 182 1.92a8.79 8.79 0 0 1 6.45 10.62M182.14 1a9.75 9.75 0 0 0-11.69 7.15 9.674 9.674 0 0 0 18.8 4.57A9.76 9.76 0 0 0 182.14 1m10.27 17.36v-.53h.34c.19 0 .41 0 .41.25s-.22.28-.44.28zm1-.28c0-.34-.22-.5-.65-.5h-.69v1.79h.31v-.76h.28l.44.75h.34l-.5-.79a.45.45 0 0 0 .47-.5"/><path d="M192.72 19.77a1.23 1.23 0 0 1-1.25-1.31 1.24 1.24 0 0 1 1.25-1.35 1.33 1.33 0 0 1 0 2.66m0-2.94a1.62 1.62 0 1 0 1.6 1.63 1.56 1.56 0 0 0-1.6-1.63M61 10.83c1.64-1 2.06.08 1 1.25a12 12 0 0 1-3.69 3S59.09 12 61 10.83m-40.17 0c1.64-1 2.06.08 1 1.25a12 12 0 0 1-3.69 3s.74-3.08 2.69-4.23m12.71-4.74C36 4 38.08 4.55 36.46 6.49a40.74 40.74 0 0 1-7.8 7.06c.47-2.33 3.76-6.43 4.88-7.44m10.46 0c2.41-2.16 4.54-1.56 2.92.38a40.53 40.53 0 0 1-7.79 7.06c.46-2.33 3.75-6.43 4.87-7.44m28.29 11.18c-.53-.67 1.67-4 2.31-6A9.41 9.41 0 0 1 70.87 8c-.68 0-1.67 1.66-2.18 2.55-1.16 2-2.7 4.92-5.35 6.47l-.89.45c-1.87.87-3.64 1.09-4.1-.64a28.49 28.49 0 0 0 4.33-3.44c3.17-3 1.53-4.95-.91-4.47a6.55 6.55 0 0 0-3.68 2 8.31 8.31 0 0 0-2.55 5.29c-.39.19-.84.38-1.32.56l-1.21.42a6.52 6.52 0 0 1-2 .39c-2.34-.19 1.72-4.7 2.29-6.41s-.46-1.86-1.35-2.76a70.06 70.06 0 0 1-4.48 6.08 2.48 2.48 0 0 0-.19.26c-2.38 2-8.24 5.73-8.36 1.17v-.4c0-.14 8.45-5.52 10.81-9.93 1.57-2.93-.73-4.2-4.09-2.73C43 4 39.67 7.31 37.73 10.25a9.56 9.56 0 0 0-1.5 4.95c-2.66 2.06-7.8 5-7.79.57v-.25S36.91 10 39.27 5.59c1.57-2.93-.73-4.2-4.09-2.73-2.67 1.17-6 4.45-7.92 7.39a9.6 9.6 0 0 0-1.49 5c-2.44 1.87-6.82 4.4-7.59 1.52a28.49 28.49 0 0 0 4.33-3.44c3.17-3 1.53-4.95-.91-4.47a6.55 6.55 0 0 0-3.68 2 8.32 8.32 0 0 0-2.56 5.34s-1.43.61-2.79 1l.15-.22c.94-1.58 1.31-3.64-.43-5.14C10.37 10.28 5.59 9 6.67 6.3c1-2.51 4.66-4 7-4.24.92-.1 2.58-.15 3.07.54 1.09 1.57-2.5 4.34-3.74 4.8 3.13 2.6 9.32-3.57 5.9-6.11a8.25 8.25 0 0 0-2-.92 12.58 12.58 0 0 0-6.63.16 15.67 15.67 0 0 0-3.9 1.71 6.61 6.61 0 0 0-3.09 3c-2 4 4.2 5.45 6.68 8.5.79 1.18-.18 2.4-1.6 3-2.26 1-5.93.86-6.3 0C1.35 15 3.71 14.58 3.35 14s-2.21-.31-3.07 1.76A2.39 2.39 0 0 0 1.1 19a8.26 8.26 0 0 0 5.12 1.1 21.9 21.9 0 0 0 9.64-2c.63 1.29 2.08 2.62 5.35 1.49A14.38 14.38 0 0 0 25.84 17c.31 1.36 1.46 4.09 5.74 2.61a14.68 14.68 0 0 0 4.7-2.66c.28 1.34 1.41 4.16 5.74 2.66A14.38 14.38 0 0 0 46.65 17c.09 1.6 1.1 3.08 2.56 3a18.38 18.38 0 0 0 6.85-1.86c.65 1.28 2.1 2.54 5.32 1.43a17.81 17.81 0 0 0 1.24-.48h0 .08a9.16 9.16 0 0 0 1-.5l.51-.32a16.1 16.1 0 0 0 2-1.55c2.24-2 3.22-5.28 4.33-4.9 1.47.51-4.53 7.39.38 8.22 1.94 0 6.15-3.72 5.58-4.69-.6-.64-2.77 2.21-4.25 2M53.58 7.73a1.42 1.42 0 0 0 1.78-.92 1.43 1.43 0 0 0-.65-1.9 1.43 1.43 0 0 0-1.78.93 1.41 1.41 0 0 0 .65 1.89"/></svg>