<svg id="Calque_1" data-name="Calque 1" xmlns="http://www.w3.org/2000/svg" viewBox="0 0 149.81 59.84">
    <defs>
        <style>.cls-1{fill:#1d1d1c;}</style>
    </defs>
    <path class="cls-1" d="M73.08,28.66a1,1,0,0,1-.26-.86,2,2,0,0,1,.33-.74,1.78,1.78,0,0,1-.31-1.77.31.31,0,0,1,.35-.15c.45.18.38.71.76.95.88.65,1.59-.34,2.27-.77.31-.23.56-.51.86-.75.11,0,.1.12.15.18a8.41,8.41,0,0,1,.31,1A13.46,13.46,0,0,0,75,29.24c.24.3.71.31.94.7a.72.72,0,0,1,.09.52,1,1,0,0,1-.9.45A1.64,1.64,0,0,1,73.68,30a.89.89,0,0,1,0-.81s.06-.1.08-.12a2.3,2.3,0,0,1-.68-.4" />
    <path class="cls-1" d="M85.57,8.92a.35.35,0,0,0,.07.13s.61.06.8.1A2.21,2.21,0,0,1,88,10.43a1.28,1.28,0,0,1-.27,1.39A.81.81,0,0,1,87,12a1.27,1.27,0,0,1-.72-1.25c-.08-.18-.16-.37-.43-.35a1.32,1.32,0,0,0-1.09.9c-.21.62-.45,1.5-.6,2.1q-1.92,7.74-3.83,15.48l-.1.1c-.49-.07-1,0-1.45,0-.1-.19,0-.48-.12-.69A12.86,12.86,0,0,0,77,23.6a1.55,1.55,0,0,1,.72-.31,5.23,5.23,0,0,1,1.42-.14c.3.25.24.67.56.9.09,0,.15-.1.19-.17,1.11-4.32,2.25-8.65,3.29-13,.06-.25,0-.28,0-.32-.16-.21-.38.06-.56.07a1,1,0,0,1-.7-.08.67.67,0,0,1-.18-.6,2.45,2.45,0,0,1,.08-.36.34.34,0,0,0-.12-.28.5.5,0,0,0-.43,0c-.1.05-.21.12-.11.36A2.44,2.44,0,0,1,81,11.71c-.23.35-.55.82-1,.81a.71.71,0,0,1-.61-.38.86.86,0,0,1,.06-.78c.23-.41.85-.22.85-.78A4.38,4.38,0,0,0,79,8a5.62,5.62,0,0,0-4.81-1.66,2.81,2.81,0,0,1-.15-1c.24-.23.87-.06.74-.55a1.07,1.07,0,0,0-.38-.46.43.43,0,0,0-.52.22,2.52,2.52,0,0,0,0,2.05c.13.27.26.25.2.41s-.25.61-.57.69A3.09,3.09,0,0,1,72.78,6a2.77,2.77,0,0,1,1.07-2.61,1.2,1.2,0,0,1,1.09,0,2.23,2.23,0,0,1,.72.78A7.29,7.29,0,0,1,76,5.1a5.34,5.34,0,0,0,.95.33,47.94,47.94,0,0,1,4.47,2.12,1,1,0,0,0,.68-.08c.45-.3,0-1,.66-1.17A1,1,0,0,1,84,6.67a1,1,0,0,1-.14,1c-.34.54-.92.57-1.44.71a.24.24,0,0,0-.12.32.39.39,0,0,0,.18.24,2.82,2.82,0,0,1,1.36-.17,1.07,1.07,0,0,1,.88-.5,1,1,0,0,1,.87.61" />
    <path class="cls-1" d="M61.39,13a1.65,1.65,0,0,1-.77-1.18,1.78,1.78,0,0,1,.65-1.56,2.7,2.7,0,0,1,2.07,0,1.67,1.67,0,0,1,1.38-.68,1.61,1.61,0,0,1,1.15.68,2.32,2.32,0,0,1,1.52-.25,2,2,0,0,1,.63.31c.15.08.21-.12.25-.21a7.58,7.58,0,0,1,4.08-4.38c.08,0,.07,0,.08,0a8.18,8.18,0,0,0,.18,1,6.71,6.71,0,0,0-2.1,1.85,5.63,5.63,0,0,0-.24,5.89A5.56,5.56,0,0,0,72,16.29c-.12.48-.53,2.11-.62,2.32a3.14,3.14,0,0,1-.82-.56A7.48,7.48,0,0,1,68,11c-.08-.21-.29-.17-.47-.18a1.09,1.09,0,0,0-.79.5c-.66.94,0,2.06.21,3a15.31,15.31,0,0,0,2.53,4.39c0,.13-.14.48-.2.7a8.16,8.16,0,0,0,.55,5.31c.06,0,.12.15.21.09l.08-.13c.21-.66.37-1.35.61-2,.36.33.74.66,1.12,1-.25,1-.53,2.08-.82,3.11-.2.71-.34,1.45-.6,2.14A12.81,12.81,0,0,0,69,29l-.1,0c-.46-3.42-1.16-6.75-3.91-9.2-.16-.15-.3-.23-.38-.31a5.91,5.91,0,0,0,.6-3.63,6.86,6.86,0,0,0-1.84-4.06.41.41,0,0,0-.47-.16.61.61,0,0,0-.19.53.85.85,0,0,1-.37.81,1,1,0,0,1-1,0" />
    <path class="cls-1" d="M75.13,8.05a15.19,15.19,0,0,1,4.12,5.37,16.35,16.35,0,0,1,.61,2.1,4.54,4.54,0,0,1-1.29.71,12.94,12.94,0,0,0-2.33-5.77,5.52,5.52,0,0,0-1.63-1.53c-.61-.13-.82.58-1.19.93a15.47,15.47,0,0,0-2.29,5.05c-.17,0-.25-.2-.37-.31a2.61,2.61,0,0,1-.49-.95c.6-2.32,2.23-4.21,3.83-6.12.16-.29.29-.61.43-.91a2.76,2.76,0,0,1,.7,0,1.43,1.43,0,0,1,.47.14,4.71,4.71,0,0,1-.62,1.17s0,.06,0,.13" />
    <path class="cls-1" d="M72.3,21.45a3.49,3.49,0,0,1-.9-1.35c.19-.65.35-1.3.55-1.94.34-1.39.71-2.77,1.12-4.14.34-1.61.85-3.15,1.29-4.72.18,0,.11.21.19.31l.27.75,1.4,4.12c.22.73.5,1.39.72,2.17,0,.05-.1.07-.15.07a7.24,7.24,0,0,1-1.78.1l-.3-.72c0-.14-.33-.9-.48-1.2-.59,2.06-1.18,4.5-1.78,6.55,0,.07,0,.09-.15,0" />
    <path class="cls-1" d="M76.11,23.68a5.62,5.62,0,0,1,3.65-.95c.38-1.32.69-2.67,1-4v-.22A4.84,4.84,0,0,1,80,16.1L80,16a11.43,11.43,0,0,1-2.39,1,8.56,8.56,0,0,1-3.42,0c-.27,1-.58,2-.8,3a7.09,7.09,0,0,1,2.77,3.63" />
    <path class="cls-1" d="M87.34,16.2a3.21,3.21,0,0,0,2.29,2.4v0a3.3,3.3,0,0,0-2.21,2.25s-.06,0-.08,0a3.22,3.22,0,0,0-1.87-2.12l-.62-.18c0-.06,0-.1.08-.11a3,3,0,0,0,2.26-2c0-.09.07-.24.15-.29" />
    <path class="cls-1" d="M61.47,16.23a2.91,2.91,0,0,0,1.8,2.16,2.47,2.47,0,0,0,.43.1c0,.09-.08.13-.15.17a3.07,3.07,0,0,0-2.14,2.07s-.06.06-.1.05a3.23,3.23,0,0,0-2.06-2.15v-.06a3.19,3.19,0,0,0,2.18-2.34h0" />
    <path class="cls-1" d="M74,21.25a1.35,1.35,0,0,1-.74.91,1.17,1.17,0,0,1-.88-.13,4.5,4.5,0,0,1-1.59-2.88c-.08-.23,0-.52-.16-.7s-.53-.43-.81-.58a6.52,6.52,0,0,0,2.62,5.75,3.91,3.91,0,0,1,1.85,2.06c.06,0,.09,0,.12-.06A3.59,3.59,0,0,0,74.45,24a1.63,1.63,0,0,1,.41-.33c.15-.08.22-.16.16-.29s-.23-.3-.33-.45a1.76,1.76,0,0,0-.54-1.64c-.05-.05-.18-.1-.2,0" />
    <path class="cls-1" d="M66.6,30.83a1.18,1.18,0,0,0,0,.3.38.38,0,0,1-.31.3.9.9,0,0,1-.64-.13A1.55,1.55,0,0,1,65,29.84a1.78,1.78,0,0,1-.72-1.71,1.78,1.78,0,0,1,.63-.76l.12-.08a4.22,4.22,0,0,1-.56-1.2,2,2,0,0,1,.8-2A1.24,1.24,0,0,1,66.56,24a1.9,1.9,0,0,1,.7,1.87,2.9,2.9,0,0,1-.49,1.07A4,4,0,0,0,67.32,28c1.73,2.63,4.51,3.57,7.38,3.88a7.81,7.81,0,0,0,6.59-2.68,4.21,4.21,0,0,0,.57-4.53,19.91,19.91,0,0,1,.6-2.51c.12-.59.33-1.13.45-1.71h0a7.5,7.5,0,0,1,1.4,7.84,8.77,8.77,0,0,1-6.43,5,12.43,12.43,0,0,1-3.47.22,14.8,14.8,0,0,1-7.65-2.84c-.1,0-.17,0-.2.17" />
    <path class="cls-1" d="M3.25,43.47a7.09,7.09,0,0,1,5.3,0c.72.22,1.24-.26,1.88-.36a.3.3,0,0,1,.26.23c.34,1.28.63,2.56.92,3.87,0,.13,0,.31-.19.36a.89.89,0,0,1-.94.06c-1.1-1.77-2.86-3.9-5.25-3.52a2.58,2.58,0,0,0-1.89,1.19,2,2,0,0,0-.23,1.08c.19,1.71,2.08,2.16,3.42,2.52,2.26.55,5.08,1.3,5.85,3.89a5,5,0,0,1-1.31,5,6.19,6.19,0,0,1-3.28,1.53,9.66,9.66,0,0,1-4.2-.47,2.68,2.68,0,0,0-2.13.32A.31.31,0,0,1,1.07,59Q.5,57,0,55a.33.33,0,0,1,0-.29,1.36,1.36,0,0,1,1-.25,6.86,6.86,0,0,1,.67.86,6,6,0,0,0,5.79,3,2.77,2.77,0,0,0,2.25-1.84,2.1,2.1,0,0,0-.72-2.12,6.11,6.11,0,0,0-2.82-1,16,16,0,0,1-3.91-1.44A4.83,4.83,0,0,1,.53,47a5.25,5.25,0,0,1,2.72-3.5" />
    <path class="cls-1" d="M48,43.27c.13,1.85.08,3.64.11,5.5.06.13.15.31.29.34a4.35,4.35,0,0,0,1.1-.39,4.11,4.11,0,0,1,4,.3c1.07.8,1.18,2,1.19,3.28,0,1.85.07,3.67.12,5.5.19.54,1.32.08,1,.94l-.15.1c-1.58,0-3.27,0-4.86,0-.15,0-.32,0-.39-.17s-.08-.45.14-.54.77-.13.85-.54c0-1.93-.08-4-.09-5.84A2.14,2.14,0,0,0,50.1,50a2,2,0,0,0-1.69.06.78.78,0,0,0-.29.42c.06,2.53,0,4.89.1,7.4.18.52,1.2.1.91.9-.05.13-.19.16-.31.18L44,59c-.1,0-.14-.11-.17-.2s-.06-.41.1-.52.67,0,.8-.38a5.8,5.8,0,0,0,.06-1.33c-.06-3.45-.12-6.7-.19-10.13A1.77,1.77,0,0,0,43.4,45a.38.38,0,0,1-.08-.32c.22-.3.56-.32.86-.44,1.16-.34,2.3-.73,3.45-1.09.13,0,.29-.05.35.1" />
    <path class="cls-1" d="M35.67,44a1.69,1.69,0,0,1,.06,1.67,1.86,1.86,0,0,1-1.6,1.18,1.76,1.76,0,0,1-1.74-1,1.89,1.89,0,0,1,0-1.64,1.94,1.94,0,0,1,1.78-.94,2,2,0,0,1,1.54.7" />
    <path class="cls-1" d="M80.37,43.41a.43.43,0,0,1,.29.15,1.1,1.1,0,0,1,0,.76c-.24.17-.59.1-.86.14a.68.68,0,0,0-.44.29,5.8,5.8,0,0,0,.33,1.84c.73,2.68,1.33,5.43,2.12,8.08a.39.39,0,0,0,.17.19.36.36,0,0,0,.39-.19c.64-2.2,1.18-4.44,1.77-6.65.48-1.27-.46-2.32-.57-3.51,0-.15.17-.19.29-.25,1.05-.29,2.11-.57,3.19-.8a.3.3,0,0,1,.3.2c.38,1.12.66,2.29,1,3.44.73,2.56,1.35,5.16,2.17,7.67a.27.27,0,0,0,.35.11c.23-.16.26-.44.34-.69.68-2.56,1.34-5.15,2-7.75a1.65,1.65,0,0,0-.57-1.67c-.32-.38-1.12,0-1.15-.7,0-.19,0-.41.16-.51l.28,0,4.67,0a.25.25,0,0,1,.2.16c0,.21.1.52-.07.69a8.87,8.87,0,0,0-1.41.64c-1.18,1-1.07,2.67-1.61,4-.65,2.78-1.47,5.51-2.24,8.24-.14.6.22,1.05.25,1.59l-.1.1c-1.12.12-2.32,0-3.45.09a.58.58,0,0,1-.34-.23c-.84-2.87-1.6-5.77-2.44-8.64a.36.36,0,0,0-.44-.19l-.15.15c-.7,2.34-1.31,4.72-2,7.08-.13.58.23,1,.25,1.58,0,.09-.18.11-.27.12-1.12,0-2.21.15-3.32,0a1,1,0,0,1-.33-.62c-.5-1.6-.92-3.22-1.39-4.84l-1.19-4.28c-.41-1.45-.79-2.91-1.21-4.35-.26-.62-1-.34-1.47-.56a.9.9,0,0,1-.09-.75.33.33,0,0,1,.25-.15h6.44" />
    <path class="cls-1" d="M41.38,44.64c.09,1.18,0,2.4.09,3.54a.62.62,0,0,0,.26.38c.58.14,1.3,0,1.92.1.22.06.16.29.21.46a2.16,2.16,0,0,1-.11.53l-.19.07-1.69,0a.7.7,0,0,0-.39.31v4.49l.06,2a1.15,1.15,0,0,0,.77.73.7.7,0,0,0,.61-.4c.15-.2.11-.59.44-.62s.45-.08.55.13a3.13,3.13,0,0,1-1.19,2.3,4.41,4.41,0,0,1-2.94.29,2.2,2.2,0,0,1-1.46-1.25,4.84,4.84,0,0,1-.2-1.49l0-6.13c-.29-.65-1.16-.26-1.72-.49a1.13,1.13,0,0,1-.05-.85l.14-.11c.57-.16,1.47.2,1.68-.54l.06-2.39c0-.13.18-.21.29-.28.88-.3,1.73-.73,2.63-1,.1,0,.23,0,.25.13" />
    <path class="cls-1" d="M35.79,48.51a11.1,11.1,0,0,1,0,1.52l0,6.91c0,.3-.13.92.21,1.17s.59,0,.75.25a.63.63,0,0,1-.06.49l-.15.13-4.9,0c-.24-.08-.17-.36-.15-.55.2-.29.74-.22.8-.67V51.79a1.78,1.78,0,0,0-1.15-1.52.31.31,0,0,1-.09-.34.39.39,0,0,1,.23-.22c1.44-.41,2.83-1,4.28-1.33.08,0,.18,0,.21.13" />
    <path class="cls-1" d="M111.15,49.43a1.27,1.27,0,0,1-1.51,1.76,2.29,2.29,0,0,1-1.46-1.48.65.65,0,0,0-.38-.28,1.69,1.69,0,0,0-1.35.74,1.24,1.24,0,0,0,0,1.21c.72.89,1.9.88,2.87,1.27a4,4,0,0,1,2.86,2.72,3.13,3.13,0,0,1-1.34,3.42c-1.5,1-3.8.91-5.52.48-.71-.26-1.61-.83-1.7-1.67a1.12,1.12,0,0,1,.53-1.11,1.47,1.47,0,0,1,1.49-.1,2.46,2.46,0,0,1,1.08,1.91,1.72,1.72,0,0,0,1.71.49A1.79,1.79,0,0,0,110,57.6a1.52,1.52,0,0,0-.73-1.57c-1.82-.94-4.6-.89-5.22-3.38a3.29,3.29,0,0,1,1.64-3.24,5.74,5.74,0,0,1,4.63-.74,1.8,1.8,0,0,1,.87.76" />
    <path class="cls-1" d="M23,49.89a.4.4,0,0,0,.4.11,7.83,7.83,0,0,1,1.49-1,3.81,3.81,0,0,1,3.52-.08c1.93,1.28,1.31,3.71,1.42,5.79V57.8c0,.31.36.44.61.53a.54.54,0,0,1,0,.55,1.07,1.07,0,0,1-.59.12l-4.16,0a.39.39,0,0,1-.23-.13.52.52,0,0,1,.08-.46c.28-.15.69-.09.85-.42l.06-.3,0-5.66a2,2,0,0,0-1.22-1.74,1.75,1.75,0,0,0-1.52.46,1,1,0,0,0-.32.49l0,6.67c.16.47.67.29.93.57a.51.51,0,0,1-.07.42.52.52,0,0,1-.46.1H19.26a.31.31,0,0,1-.24-.2.39.39,0,0,1,.15-.47c.28-.08.64,0,.79-.33l.05-.2v-5.6c-.13-.71-.31-1.57-1.12-1.85a1.72,1.72,0,0,0-1.76.86l-.05,1.68v5.1c.15.3.5.32.79.39s.13.29.1.45-.25.19-.39.2l-4.81,0a.4.4,0,0,1-.23-.21c0-.15,0-.33.13-.4.35-.06.79-.07.93-.48,0-2,0-4.18-.07-6.16a1.82,1.82,0,0,0-1.21-1.34c-.1-.07-.16-.22-.1-.3s.14-.18.25-.24c1.16-.43,2.31-.93,3.49-1.31.21,0,.45,0,.54.18.26.35.23.83.6,1.12h.24a4.13,4.13,0,0,1,3.82-1.24A3,3,0,0,1,23,49.89" />
    <path class="cls-1" d="M120,49.52a1.24,1.24,0,0,1-.9,1.83,1.54,1.54,0,0,1-1.4-.4c-.41-.4-.51-.92-.93-1.29a1.32,1.32,0,0,0-1.35.6,1.1,1.1,0,0,0-.09,1.18,1.75,1.75,0,0,0,1,.76c1.79.59,4.25,1,4.74,3.27a3.51,3.51,0,0,1-1,3.21c-1.6,1.34-4.28,1.29-6.17.61a2.41,2.41,0,0,1-1.41-1.4,1.37,1.37,0,0,1,.68-1.4,1.59,1.59,0,0,1,1.65.21,2.56,2.56,0,0,1,.81,1.7c.25.53.85.55,1.37.54a1.86,1.86,0,0,0,1.76-1.09,1.3,1.3,0,0,0-.42-1.43c-1-.79-2.31-.86-3.44-1.4a3.2,3.2,0,0,1-2.06-2.17,3.11,3.11,0,0,1,1.18-3,5.77,5.77,0,0,1,4.92-1.17,1.8,1.8,0,0,1,1,.8" />
    <path class="cls-1" d="M136.91,49c.3.32.31.76.5,1.12a.37.37,0,0,0,.38.1A4.51,4.51,0,0,1,141.67,49a2.84,2.84,0,0,1,2.21,1.83c.57,1.74.19,3.47.31,5.39a16.61,16.61,0,0,0,0,2,.66.66,0,0,0,.26.38c.24.17.64,0,.76.36a.67.67,0,0,1-.07.5l-.19.14c-1.63,0-3.28-.06-4.91-.09a.39.39,0,0,1-.29-.25.62.62,0,0,1,.06-.46c.26-.25.77-.15.85-.6l0-.24c0-1.72,0-3.78-.11-5.54a1.75,1.75,0,0,0-1-1.5,1.79,1.79,0,0,0-1.79.48c-.39.34-.24.9-.3,1.35.06,1.83-.05,3.66.07,5.42a.62.62,0,0,0,.45.44c.2,0,.44,0,.54.25a.64.64,0,0,1-.06.49l-.19.12c-1.64,0-3.28,0-4.92-.07a.46.46,0,0,1-.31-.25.41.41,0,0,1,.06-.39c.37-.22,1-.19,1-.79,0-1.71-.09-3.42-.13-5.13-.1-.59-.13-1.25-.7-1.61-.25-.19-.64-.18-.78-.5a.51.51,0,0,1,.13-.41c.17-.19.45-.14.65-.27,1.05-.4,2.1-.76,3.16-1.13a.62.62,0,0,1,.46.12" />
    <path class="cls-1" d="M102.74,51.1a3.75,3.75,0,0,1,.49,1.84l-.11.13-1.37.37-4.28,1.07c-.27.07-.62.11-.73.41a2.71,2.71,0,0,0,.59,1.47,3.28,3.28,0,0,0,2.89,1.34,4.37,4.37,0,0,0,2.47-1.37.56.56,0,0,1,.59.13.29.29,0,0,1,0,.32,5.5,5.5,0,0,1-1.28,1.42,5.85,5.85,0,0,1-5.66.81,5,5,0,0,1-3.19-3.73,5.53,5.53,0,0,1,2.11-5.76A5.22,5.22,0,0,1,100.6,49a4.45,4.45,0,0,1,2.14,2.12m-5-1.64a2.46,2.46,0,0,0-1.47,2.08,3.56,3.56,0,0,0,.13,2,.52.52,0,0,0,.35.13c1-.32,2.33-.21,3-1.23A2.43,2.43,0,0,0,99.56,50,1.57,1.57,0,0,0,97.76,49.46Z" />
    <path class="cls-1" d="M132.43,52.11a5.38,5.38,0,0,1-.29,5.16,5.81,5.81,0,0,1-6.29,2.41,6.07,6.07,0,0,1-4.43-4.18,5.67,5.67,0,0,1,2.1-5.59,6.34,6.34,0,0,1,6-.61,5.6,5.6,0,0,1,2.92,2.81M127.86,50a1.46,1.46,0,0,0-1.51,0,2.5,2.5,0,0,0-1,2.08,17.17,17.17,0,0,0-.16,2.4c.16,1.62,0,3.66,1.69,4.37a1.5,1.5,0,0,0,1.49-.48c.78-1.11.64-2.62.68-4a9.88,9.88,0,0,0-.55-3.67A2.58,2.58,0,0,0,127.86,50Z" />
    <path class="cls-1" d="M70.43,45a2,2,0,0,1-.2,1.69,1.9,1.9,0,0,1-1.82.64,1.83,1.83,0,0,1-1.28-1,2.7,2.7,0,0,1-.1-1.84.55.55,0,0,0-.19-.42.69.69,0,0,0-.67-.17,2,2,0,0,0-1.28,1.71,16.39,16.39,0,0,0,2.39,6.18A16.56,16.56,0,0,0,69,54.41a.53.53,0,0,0,.44.07,4.69,4.69,0,0,0,1.15-1.91,1.61,1.61,0,0,0-.22-1.65,2.15,2.15,0,0,0-1.4-.56c-.2-.13-.14-.43-.13-.65l.15-.15c1.64,0,3.42-.07,5.07,0,0,0,.14,0,.17.11a1,1,0,0,1,0,.65c-.35.26-.85.21-1.2.48A4.08,4.08,0,0,0,71.57,53a19.93,19.93,0,0,1-1.41,2.3c-.28.67.52,1,.89,1.43a2.43,2.43,0,0,0,2.28.5c.25-.09.47-.29.75-.25a.65.65,0,0,1,.29.38c0,.19-.19.29-.31.41a5.19,5.19,0,0,1-5.49.88c-.55-.16-1-.83-1.6-.59-2.33,1.29-5.94,1.66-8.23,0a3.66,3.66,0,0,1-1.3-3.86c.5-2,2.7-3.18,4.43-3.83a1,1,0,0,0,.34-.38c0-.63-.29-1.17-.29-1.81a4.69,4.69,0,0,1,2.14-4.56,5.36,5.36,0,0,1,5.49.22A2.75,2.75,0,0,1,70.43,45M61.75,51.6a2.67,2.67,0,0,0-.67,2.62c.47,1.46,1.45,3.38,3.21,3.57a2.57,2.57,0,0,0,1.83-.44.49.49,0,0,0,0-.51,31.25,31.25,0,0,1-2.7-4.24c-.27-.4-.36-.88-.68-1.29S62,51.38,61.75,51.6Z" />
    <path class="cls-1" d="M93.18,18.52A18.52,18.52,0,1,1,74.66,0,18.52,18.52,0,0,1,93.18,18.52M74.61,1.63A16.94,16.94,0,1,0,91.55,18.56,16.93,16.93,0,0,0,74.61,1.63Z" />
    <path class="cls-1" d="M92.85,6.09h-.44V4h.77c.53,0,.85.15.85.62a.49.49,0,0,1-.5.54l.53.9h-.52l-.48-.87h-.21v.87m.39-1.22c.2,0,.32,0,.32-.27s-.23-.22-.4-.22h-.31v.49ZM93.17,7a1.85,1.85,0,0,1-1.92-1.91,1.92,1.92,0,0,1,3.84,0A1.85,1.85,0,0,1,93.17,7Zm0-3.38A1.38,1.38,0,0,0,91.8,5.06a1.38,1.38,0,0,0,1.37,1.47h0a1.39,1.39,0,0,0,1.37-1.47A1.39,1.39,0,0,0,93.17,3.59Z" />
    <path class="cls-1" d="M147.57,51.26h-.43V49.2h.76c.53,0,.85.15.85.62a.48.48,0,0,1-.5.54l.53.9h-.52l-.48-.87h-.21v.87M148,50c.2,0,.32,0,.32-.27s-.23-.22-.4-.22h-.31V50Zm-.07,2.1a1.91,1.91,0,1,1,1.92-1.91A1.85,1.85,0,0,1,147.89,52.14Zm0-3.38a1.47,1.47,0,0,0,0,2.94h0a1.47,1.47,0,0,0,0-2.94Z" />
</svg>